<svg width="711" height="300" viewBox="0 0 711 300" fill="none" xmlns="http://www.w3.org/2000/svg">
<rect width="711" height="300" fill="#C4C4C4" fill-opacity="0.7"/>
<path d="M372.5 137.5H357.5V152.5H352.5V137.5H337.5V132.5H352.5V117.5H357.5V132.5H372.5V137.5Z" fill="black" fill-opacity="0.5"/>
<path d="M280.954 183.634H273.934L272.422 187H271.036L276.796 174.4H278.11L283.87 187H282.466L280.954 183.634ZM280.468 182.554L277.444 175.786L274.42 182.554H280.468ZM294.362 177.532V185.848C294.362 187.456 293.966 188.644 293.174 189.412C292.394 190.192 291.212 190.582 289.628 190.582C288.752 190.582 287.918 190.45 287.126 190.186C286.346 189.934 285.71 189.58 285.218 189.124L285.866 188.152C286.322 188.56 286.874 188.878 287.522 189.106C288.182 189.334 288.872 189.448 289.592 189.448C290.792 189.448 291.674 189.166 292.238 188.602C292.802 188.05 293.084 187.186 293.084 186.01V184.804C292.688 185.404 292.166 185.86 291.518 186.172C290.882 186.484 290.174 186.64 289.394 186.64C288.506 186.64 287.696 186.448 286.964 186.064C286.244 185.668 285.674 185.122 285.254 184.426C284.846 183.718 284.642 182.92 284.642 182.032C284.642 181.144 284.846 180.352 285.254 179.656C285.674 178.96 286.244 178.42 286.964 178.036C287.684 177.652 288.494 177.46 289.394 177.46C290.198 177.46 290.924 177.622 291.572 177.946C292.22 178.27 292.742 178.738 293.138 179.35V177.532H294.362ZM289.52 185.506C290.204 185.506 290.822 185.362 291.374 185.074C291.926 184.774 292.352 184.36 292.652 183.832C292.964 183.304 293.12 182.704 293.12 182.032C293.12 181.36 292.964 180.766 292.652 180.25C292.352 179.722 291.926 179.314 291.374 179.026C290.834 178.726 290.216 178.576 289.52 178.576C288.836 178.576 288.218 178.72 287.666 179.008C287.126 179.296 286.7 179.704 286.388 180.232C286.088 180.76 285.938 181.36 285.938 182.032C285.938 182.704 286.088 183.304 286.388 183.832C286.7 184.36 287.126 184.774 287.666 185.074C288.218 185.362 288.836 185.506 289.52 185.506ZM299.16 179.386C299.46 178.75 299.904 178.27 300.492 177.946C301.092 177.622 301.83 177.46 302.706 177.46V178.702L302.4 178.684C301.404 178.684 300.624 178.99 300.06 179.602C299.496 180.214 299.214 181.072 299.214 182.176V187H297.936V177.532H299.16V179.386ZM313.176 182.662H305.256C305.328 183.646 305.706 184.444 306.39 185.056C307.074 185.656 307.938 185.956 308.982 185.956C309.57 185.956 310.11 185.854 310.602 185.65C311.094 185.434 311.52 185.122 311.88 184.714L312.6 185.542C312.18 186.046 311.652 186.43 311.016 186.694C310.392 186.958 309.702 187.09 308.946 187.09C307.974 187.09 307.11 186.886 306.354 186.478C305.61 186.058 305.028 185.482 304.608 184.75C304.188 184.018 303.978 183.19 303.978 182.266C303.978 181.342 304.176 180.514 304.572 179.782C304.98 179.05 305.532 178.48 306.228 178.072C306.936 177.664 307.728 177.46 308.604 177.46C309.48 177.46 310.266 177.664 310.962 178.072C311.658 178.48 312.204 179.05 312.6 179.782C312.996 180.502 313.194 181.33 313.194 182.266L313.176 182.662ZM308.604 178.558C307.692 178.558 306.924 178.852 306.3 179.44C305.688 180.016 305.34 180.772 305.256 181.708H311.97C311.886 180.772 311.532 180.016 310.908 179.44C310.296 178.852 309.528 178.558 308.604 178.558ZM324.562 177.532V185.848C324.562 187.456 324.166 188.644 323.374 189.412C322.594 190.192 321.412 190.582 319.828 190.582C318.952 190.582 318.118 190.45 317.326 190.186C316.546 189.934 315.91 189.58 315.418 189.124L316.066 188.152C316.522 188.56 317.074 188.878 317.722 189.106C318.382 189.334 319.072 189.448 319.792 189.448C320.992 189.448 321.874 189.166 322.438 188.602C323.002 188.05 323.284 187.186 323.284 186.01V184.804C322.888 185.404 322.366 185.86 321.718 186.172C321.082 186.484 320.374 186.64 319.594 186.64C318.706 186.64 317.896 186.448 317.164 186.064C316.444 185.668 315.874 185.122 315.454 184.426C315.046 183.718 314.842 182.92 314.842 182.032C314.842 181.144 315.046 180.352 315.454 179.656C315.874 178.96 316.444 178.42 317.164 178.036C317.884 177.652 318.694 177.46 319.594 177.46C320.398 177.46 321.124 177.622 321.772 177.946C322.42 178.27 322.942 178.738 323.338 179.35V177.532H324.562ZM319.72 185.506C320.404 185.506 321.022 185.362 321.574 185.074C322.126 184.774 322.552 184.36 322.852 183.832C323.164 183.304 323.32 182.704 323.32 182.032C323.32 181.36 323.164 180.766 322.852 180.25C322.552 179.722 322.126 179.314 321.574 179.026C321.034 178.726 320.416 178.576 319.72 178.576C319.036 178.576 318.418 178.72 317.866 179.008C317.326 179.296 316.9 179.704 316.588 180.232C316.288 180.76 316.138 181.36 316.138 182.032C316.138 182.704 316.288 183.304 316.588 183.832C316.9 184.36 317.326 184.774 317.866 185.074C318.418 185.362 319.036 185.506 319.72 185.506ZM331.448 177.46C332.684 177.46 333.632 177.772 334.292 178.396C334.952 179.008 335.282 179.92 335.282 181.132V187H334.058V185.524C333.77 186.016 333.344 186.4 332.78 186.676C332.228 186.952 331.568 187.09 330.8 187.09C329.744 187.09 328.904 186.838 328.28 186.334C327.656 185.83 327.344 185.164 327.344 184.336C327.344 183.532 327.632 182.884 328.208 182.392C328.796 181.9 329.726 181.654 330.998 181.654H334.004V181.078C334.004 180.262 333.776 179.644 333.32 179.224C332.864 178.792 332.198 178.576 331.322 178.576C330.722 178.576 330.146 178.678 329.594 178.882C329.042 179.074 328.568 179.344 328.172 179.692L327.596 178.738C328.076 178.33 328.652 178.018 329.324 177.802C329.996 177.574 330.704 177.46 331.448 177.46ZM330.998 186.082C331.718 186.082 332.336 185.92 332.852 185.596C333.368 185.26 333.752 184.78 334.004 184.156V182.608H331.034C329.414 182.608 328.604 183.172 328.604 184.3C328.604 184.852 328.814 185.29 329.234 185.614C329.654 185.926 330.242 186.082 330.998 186.082ZM339.977 179.386C340.277 178.75 340.721 178.27 341.309 177.946C341.909 177.622 342.647 177.46 343.523 177.46V178.702L343.217 178.684C342.221 178.684 341.441 178.99 340.877 179.602C340.313 180.214 340.031 181.072 340.031 182.176V187H338.753V177.532H339.977V179.386ZM353.82 174.634C353.268 174.634 352.848 174.784 352.56 175.084C352.284 175.384 352.146 175.828 352.146 176.416V177.532H355.062V178.612H352.182V187H350.904V178.612H349.212V177.532H350.904V176.362C350.904 175.498 351.15 174.814 351.642 174.31C352.146 173.806 352.854 173.554 353.766 173.554C354.126 173.554 354.474 173.608 354.81 173.716C355.146 173.812 355.428 173.956 355.656 174.148L355.224 175.102C354.852 174.79 354.384 174.634 353.82 174.634ZM360.5 187.09C359.588 187.09 358.766 186.886 358.034 186.478C357.302 186.058 356.726 185.482 356.306 184.75C355.886 184.018 355.676 183.19 355.676 182.266C355.676 181.342 355.886 180.514 356.306 179.782C356.726 179.05 357.302 178.48 358.034 178.072C358.766 177.664 359.588 177.46 360.5 177.46C361.412 177.46 362.234 177.664 362.966 178.072C363.698 178.48 364.268 179.05 364.676 179.782C365.096 180.514 365.306 181.342 365.306 182.266C365.306 183.19 365.096 184.018 364.676 184.75C364.268 185.482 363.698 186.058 362.966 186.478C362.234 186.886 361.412 187.09 360.5 187.09ZM360.5 185.956C361.172 185.956 361.772 185.806 362.3 185.506C362.84 185.194 363.26 184.756 363.56 184.192C363.86 183.628 364.01 182.986 364.01 182.266C364.01 181.546 363.86 180.904 363.56 180.34C363.26 179.776 362.84 179.344 362.3 179.044C361.772 178.732 361.172 178.576 360.5 178.576C359.828 178.576 359.222 178.732 358.682 179.044C358.154 179.344 357.734 179.776 357.422 180.34C357.122 180.904 356.972 181.546 356.972 182.266C356.972 182.986 357.122 183.628 357.422 184.192C357.734 184.756 358.154 185.194 358.682 185.506C359.222 185.806 359.828 185.956 360.5 185.956ZM372.901 186.424C372.661 186.64 372.361 186.808 372.001 186.928C371.653 187.036 371.287 187.09 370.903 187.09C370.015 187.09 369.331 186.85 368.851 186.37C368.371 185.89 368.131 185.212 368.131 184.336V178.612H366.439V177.532H368.131V175.462H369.409V177.532H372.289V178.612H369.409V184.264C369.409 184.828 369.547 185.26 369.823 185.56C370.111 185.848 370.519 185.992 371.047 185.992C371.311 185.992 371.563 185.95 371.803 185.866C372.055 185.782 372.271 185.662 372.451 185.506L372.901 186.424ZM378.763 187.09C377.851 187.09 377.029 186.886 376.297 186.478C375.565 186.058 374.989 185.482 374.569 184.75C374.149 184.018 373.939 183.19 373.939 182.266C373.939 181.342 374.149 180.514 374.569 179.782C374.989 179.05 375.565 178.48 376.297 178.072C377.029 177.664 377.851 177.46 378.763 177.46C379.675 177.46 380.497 177.664 381.229 178.072C381.961 178.48 382.531 179.05 382.939 179.782C383.359 180.514 383.569 181.342 383.569 182.266C383.569 183.19 383.359 184.018 382.939 184.75C382.531 185.482 381.961 186.058 381.229 186.478C380.497 186.886 379.675 187.09 378.763 187.09ZM378.763 185.956C379.435 185.956 380.035 185.806 380.563 185.506C381.103 185.194 381.523 184.756 381.823 184.192C382.123 183.628 382.273 182.986 382.273 182.266C382.273 181.546 382.123 180.904 381.823 180.34C381.523 179.776 381.103 179.344 380.563 179.044C380.035 178.732 379.435 178.576 378.763 178.576C378.091 178.576 377.485 178.732 376.945 179.044C376.417 179.344 375.997 179.776 375.685 180.34C375.385 180.904 375.235 181.546 375.235 182.266C375.235 182.986 375.385 183.628 375.685 184.192C375.997 184.756 376.417 185.194 376.945 185.506C377.485 185.806 378.091 185.956 378.763 185.956ZM394.944 177.532V185.848C394.944 187.456 394.548 188.644 393.756 189.412C392.976 190.192 391.794 190.582 390.21 190.582C389.334 190.582 388.5 190.45 387.708 190.186C386.928 189.934 386.292 189.58 385.8 189.124L386.448 188.152C386.904 188.56 387.456 188.878 388.104 189.106C388.764 189.334 389.454 189.448 390.174 189.448C391.374 189.448 392.256 189.166 392.82 188.602C393.384 188.05 393.666 187.186 393.666 186.01V184.804C393.27 185.404 392.748 185.86 392.1 186.172C391.464 186.484 390.756 186.64 389.976 186.64C389.088 186.64 388.278 186.448 387.546 186.064C386.826 185.668 386.256 185.122 385.836 184.426C385.428 183.718 385.224 182.92 385.224 182.032C385.224 181.144 385.428 180.352 385.836 179.656C386.256 178.96 386.826 178.42 387.546 178.036C388.266 177.652 389.076 177.46 389.976 177.46C390.78 177.46 391.506 177.622 392.154 177.946C392.802 178.27 393.324 178.738 393.72 179.35V177.532H394.944ZM390.102 185.506C390.786 185.506 391.404 185.362 391.956 185.074C392.508 184.774 392.934 184.36 393.234 183.832C393.546 183.304 393.702 182.704 393.702 182.032C393.702 181.36 393.546 180.766 393.234 180.25C392.934 179.722 392.508 179.314 391.956 179.026C391.416 178.726 390.798 178.576 390.102 178.576C389.418 178.576 388.8 178.72 388.248 179.008C387.708 179.296 387.282 179.704 386.97 180.232C386.67 180.76 386.52 181.36 386.52 182.032C386.52 182.704 386.67 183.304 386.97 183.832C387.282 184.36 387.708 184.774 388.248 185.074C388.8 185.362 389.418 185.506 390.102 185.506ZM399.742 179.386C400.042 178.75 400.486 178.27 401.074 177.946C401.674 177.622 402.412 177.46 403.288 177.46V178.702L402.982 178.684C401.986 178.684 401.206 178.99 400.642 179.602C400.078 180.214 399.796 181.072 399.796 182.176V187H398.518V177.532H399.742V179.386ZM408.897 177.46C410.133 177.46 411.081 177.772 411.741 178.396C412.401 179.008 412.731 179.92 412.731 181.132V187H411.507V185.524C411.219 186.016 410.793 186.4 410.229 186.676C409.677 186.952 409.017 187.09 408.249 187.09C407.193 187.09 406.353 186.838 405.729 186.334C405.105 185.83 404.793 185.164 404.793 184.336C404.793 183.532 405.081 182.884 405.657 182.392C406.245 181.9 407.175 181.654 408.447 181.654H411.453V181.078C411.453 180.262 411.225 179.644 410.769 179.224C410.313 178.792 409.647 178.576 408.771 178.576C408.171 178.576 407.595 178.678 407.043 178.882C406.491 179.074 406.017 179.344 405.621 179.692L405.045 178.738C405.525 178.33 406.101 178.018 406.773 177.802C407.445 177.574 408.153 177.46 408.897 177.46ZM408.447 186.082C409.167 186.082 409.785 185.92 410.301 185.596C410.817 185.26 411.201 184.78 411.453 184.156V182.608H408.483C406.863 182.608 406.053 183.172 406.053 184.3C406.053 184.852 406.263 185.29 406.683 185.614C407.103 185.926 407.691 186.082 408.447 186.082ZM419.334 174.634C418.782 174.634 418.362 174.784 418.074 175.084C417.798 175.384 417.66 175.828 417.66 176.416V177.532H420.576V178.612H417.696V187H416.418V178.612H414.726V177.532H416.418V176.362C416.418 175.498 416.664 174.814 417.156 174.31C417.66 173.806 418.368 173.554 419.28 173.554C419.64 173.554 419.988 173.608 420.324 173.716C420.66 173.812 420.942 173.956 421.17 174.148L420.738 175.102C420.366 174.79 419.898 174.634 419.334 174.634ZM423.743 177.532H425.021V187H423.743V177.532ZM425.687 173.824H427.397L424.481 176.056H423.221L425.687 173.824ZM431.889 177.46C433.125 177.46 434.073 177.772 434.733 178.396C435.393 179.008 435.723 179.92 435.723 181.132V187H434.499V185.524C434.211 186.016 433.785 186.4 433.221 186.676C432.669 186.952 432.009 187.09 431.241 187.09C430.185 187.09 429.345 186.838 428.721 186.334C428.097 185.83 427.785 185.164 427.785 184.336C427.785 183.532 428.073 182.884 428.649 182.392C429.237 181.9 430.167 181.654 431.439 181.654H434.445V181.078C434.445 180.262 434.217 179.644 433.761 179.224C433.305 178.792 432.639 178.576 431.763 178.576C431.163 178.576 430.587 178.678 430.035 178.882C429.483 179.074 429.009 179.344 428.613 179.692L428.037 178.738C428.517 178.33 429.093 178.018 429.765 177.802C430.437 177.574 431.145 177.46 431.889 177.46ZM431.439 186.082C432.159 186.082 432.777 185.92 433.293 185.596C433.809 185.26 434.193 184.78 434.445 184.156V182.608H431.475C429.855 182.608 429.045 183.172 429.045 184.3C429.045 184.852 429.255 185.29 429.675 185.614C430.095 185.926 430.683 186.082 431.439 186.082Z" fill="black" fill-opacity="0.5"/>
</svg>
