<svg width="50" height="50" viewBox="0 0 50 50" fill="none" xmlns="http://www.w3.org/2000/svg">
<path d="M12.5 35.4166H37.5V31.25H12.5V35.4166ZM12.5 27.0833H37.5V22.9166H12.5V27.0833ZM12.5 18.75H37.5V14.5833H12.5V18.75ZM43.75 45.8333L40.625 42.7083L37.5 45.8333L34.375 42.7083L31.25 45.8333L28.125 42.7083L25 45.8333L21.875 42.7083L18.75 45.8333L15.625 42.7083L12.5 45.8333L9.375 42.7083L6.25 45.8333V4.16663L9.375 7.29163L12.5 4.16663L15.625 7.29163L18.75 4.16663L21.875 7.29163L25 4.16663L28.125 7.29163L31.25 4.16663L34.375 7.29163L37.5 4.16663L40.625 7.29163L43.75 4.16663V45.8333Z" fill="#E3242B"/>
</svg>
