<svg width="50" height="50" viewBox="0 0 50 50" fill="none" xmlns="http://www.w3.org/2000/svg">
<path d="M14.5833 22.9167V27.0833H35.4166V22.9167H14.5833ZM25 4.16666C13.5 4.16666 4.16663 13.5 4.16663 25C4.16663 36.5 13.5 45.8333 25 45.8333C36.5 45.8333 45.8333 36.5 45.8333 25C45.8333 13.5 36.5 4.16666 25 4.16666ZM25 41.6667C15.8125 41.6667 8.33329 34.1875 8.33329 25C8.33329 15.8125 15.8125 8.33332 25 8.33332C34.1875 8.33332 41.6666 15.8125 41.6666 25C41.6666 34.1875 34.1875 41.6667 25 41.6667Z" fill="black" fill-opacity="0.5"/>
</svg>
