<svg width="33" height="33" viewBox="0 0 33 33" fill="none" xmlns="http://www.w3.org/2000/svg">
<path d="M23.375 4.125H6.875C5.34875 4.125 4.125 5.3625 4.125 6.875V26.125C4.125 27.6375 5.34875 28.875 6.875 28.875H26.125C27.6375 28.875 28.875 27.6375 28.875 26.125V9.625L23.375 4.125ZM16.5 26.125C14.2175 26.125 12.375 24.2825 12.375 22C12.375 19.7175 14.2175 17.875 16.5 17.875C18.7825 17.875 20.625 19.7175 20.625 22C20.625 24.2825 18.7825 26.125 16.5 26.125ZM20.625 12.375H6.875V6.875H20.625V12.375Z" fill="white"/>
</svg>
