<svg width="50" height="50" viewBox="0 0 50 50" fill="none" xmlns="http://www.w3.org/2000/svg">
<path d="M45.625 18.5208L43.4375 9.41667C42.9792 7.54167 41.3542 6.25 39.4584 6.25H10.5208C8.64585 6.25 7.00001 7.5625 6.56251 9.41667L4.37501 18.5208C3.87501 20.6458 4.33335 22.8125 5.66668 24.5208C5.83335 24.75 6.06251 24.9167 6.25001 25.125V39.5833C6.25001 41.875 8.12501 43.75 10.4167 43.75H39.5834C41.875 43.75 43.75 41.875 43.75 39.5833V25.125C43.9375 24.9375 44.1667 24.75 44.3334 24.5417C45.6667 22.8333 46.1459 20.6458 45.625 18.5208ZM39.3959 10.3958L41.5834 19.5C41.7917 20.375 41.6042 21.25 41.0625 21.9375C40.7709 22.3125 40.1459 22.9167 39.1042 22.9167C37.8334 22.9167 36.7292 21.8958 36.5833 20.5417L35.375 10.4167L39.3959 10.3958ZM27.0833 10.4167H31.1667L32.2917 19.8333C32.3958 20.6458 32.1458 21.4583 31.6042 22.0625C31.1458 22.6042 30.4792 22.9167 29.625 22.9167C28.2292 22.9167 27.0833 21.6875 27.0833 20.1875V10.4167ZM17.6875 19.8333L18.8333 10.4167H22.9167V20.1875C22.9167 21.6875 21.7708 22.9167 20.2292 22.9167C19.5208 22.9167 18.875 22.6042 18.375 22.0625C17.8542 21.4583 17.6042 20.6458 17.6875 19.8333ZM8.41668 19.5L10.5208 10.4167H14.625L13.4167 20.5417C13.25 21.8958 12.1667 22.9167 10.8958 22.9167C9.87501 22.9167 9.22918 22.3125 8.95835 21.9375C8.39585 21.2708 8.20835 20.375 8.41668 19.5ZM10.4167 39.5833V27.0208C10.5833 27.0417 10.7292 27.0833 10.8958 27.0833C12.7083 27.0833 14.3542 26.3333 15.5625 25.1042C16.8125 26.3542 18.4792 27.0833 20.375 27.0833C22.1875 27.0833 23.8125 26.3333 25.0208 25.1458C26.25 26.3333 27.9167 27.0833 29.7917 27.0833C31.5417 27.0833 33.2084 26.3542 34.4584 25.1042C35.6667 26.3333 37.3125 27.0833 39.125 27.0833C39.2917 27.0833 39.4375 27.0417 39.6042 27.0208V39.5833H10.4167Z" fill="#41A420"/>
</svg>
